PathFileType	4	(X/Y/Z)	s05c0301.trc
DataRate	CameraRate	NumFrames	NumMarkers	Units	OrigDataRate	OrigDataStartFrame	OrigNumFrames
200	200	5	50	mm	200	500	2000
Frame#	Time	racr			lacr			c7			jug			rlel			rdr			llel			ldr			s2			lic			ric			lasi			rasi			rpsi			lpsi			rgt			lgt			rth1			rth2			rth3			rth4			rlfc			rmfc			rsh1			rsh2			rsh3			rsh4			rlmal			rmmal			rcal			rtoe			rmt5			lth1			lth2			lth4			lth3			llfc			lmfc			lsh1			lsh2			lsh3			lsh4			llmal			lmmal			lcal			ltoe			lmt5			SBIKE			LBIKE			RBIKE			
		X1	Y1	Z1	X2	Y2	Z2	X3	Y3	Z3	X4	Y4	Z4	X5	Y5	Z5	X6	Y6	Z6	X7	Y7	Z7	X8	Y8	Z8	X9	Y9	Z9	X10	Y10	Z10	X11	Y11	Z11	X12	Y12	Z12	X13	Y13	Z13	X14	Y14	Z14	X15	Y15	Z15	X16	Y16	Z16	X17	Y17	Z17	X18	Y18	Z18	X19	Y19	Z19	X20	Y20	Z20	X21	Y21	Z21	X22	Y22	Z22	X23	Y23	Z23	X24	Y24	Z24	X25	Y25	Z25	X26	Y26	Z26	X27	Y27	Z27	X28	Y28	Z28	X29	Y29	Z29	X30	Y30	Z30	X31	Y31	Z31	X32	Y32	Z32	X33	Y33	Z33	X34	Y34	Z34	X35	Y35	Z35	X36	Y36	Z36	X37	Y37	Z37	X38	Y38	Z38	X39	Y39	Z39	X40	Y40	Z40	X41	Y41	Z41	X42	Y42	Z42	X43	Y43	Z43	X44	Y44	Z44	X45	Y45	Z45	X46	Y46	Z46	X47	Y47	Z47	X48	Y48	Z48	X49	Y49	Z49	X50	Y50	Z50	
500	2.5000	663.455472	1338.917861	-217.572095	648.522478	1346.361074	-512.700313	639.927606	1425.600912	-372.456369	612.377974	1263.801193	-362.762713	563.231477	1119.350521	-43.807045	691.689014	916.887937	-92.319342	471.412120	1094.289655	-560.387328	664.259682	936.117581	-483.774788	101.330565	1199.801130	-259.783302	228.826771	1198.575507	-421.205949	276.166093	1209.174629	-137.566021	282.330891	1144.226279	-392.793524	294.936327	1141.302214	-171.099095	145.790959	1240.996581	-219.107465	138.417427	1244.512127	-305.911086	205.581142	1075.877336	-105.579302	160.692018	1110.278068	-443.791529	282.554182	992.155186	-91.101812	356.258967	942.436843	-84.794801	393.159217	862.102511	-83.087072	382.769048	964.891522	-98.157327	466.205563	738.246049	-101.065396	456.497153	735.649853	-210.983366	364.960462	701.553464	-76.137139	299.778439	643.449631	-92.035137	216.764143	621.957558	-97.336488	316.116688	619.909445	-118.127483	99.239754	558.972808	-108.976044	134.299102	567.886940	-188.922976	35.743400	599.497420	-158.687001	159.396355	329.921994	-157.729532	91.065476	406.744222	-93.037851	231.195024	982.639089	-471.445632	293.694040	924.176681	-470.777330	325.660387	941.748358	-460.665936	317.787868	836.745030	-468.796616	381.060908	705.044230	-443.964592	372.765390	694.934957	-337.067786	318.575760	591.017744	-464.650679	309.155853	504.811267	-449.975108	256.565676	433.475752	-444.443740	339.271409	496.997545	-427.233471	216.109282	316.150860	-433.655736	253.906232	350.348355	-358.690285	153.596441	280.119141	-386.734873	445.692854	246.843114	-410.147452	332.789829	224.267608	-467.010839	-218.901472	911.051374	-275.680412	-53.321881	78.893719	-474.994017	-53.327328	79.148636	-77.411649	
501	2.5050	664.526643	1340.256355	-216.372861	651.304355	1347.277342	-511.912968	641.799293	1426.626612	-371.870833	614.499757	1264.976973	-361.956399	563.797823	1119.760557	-43.806896	691.897893	917.003173	-92.294605	474.565883	1095.601020	-562.809507	664.920478	935.576890	-483.812534	102.379919	1199.959126	-262.396271	231.363415	1197.498065	-423.078456	276.365833	1211.003576	-139.171654	284.590436	1143.234522	-393.938925	295.616868	1143.072880	-172.079673	146.614991	1241.320783	-222.000123	140.403679	1243.989429	-308.939432	206.423711	1077.580561	-106.387475	162.486169	1108.811889	-445.010358	283.856025	994.088868	-90.450597	358.212828	945.326185	-84.145857	396.160176	865.502044	-82.556215	384.474919	968.158440	-97.615534	470.803390	743.110630	-100.567341	461.196376	740.852915	-211.234291	369.128254	707.141146	-76.242406	303.819078	649.083907	-92.148387	220.777657	627.737482	-97.635077	320.176201	625.296115	-117.993691	103.343581	564.798475	-109.498544	138.021640	573.076954	-189.084302	39.916642	605.458439	-159.191866	163.218023	335.821627	-157.847157	95.023161	412.701545	-93.240542	231.278274	980.464748	-472.386756	292.710936	920.890218	-471.502203	324.961825	937.921650	-461.574611	315.238199	833.080325	-469.236778	376.322137	700.812599	-444.146742	368.046671	691.287128	-337.672694	314.312299	586.448681	-465.081074	305.277642	500.269921	-450.380379	252.977072	428.744469	-444.733070	335.410297	492.636648	-427.501217	213.283241	311.445468	-434.258771	251.398879	346.177444	-359.699295	150.605017	276.042967	-387.339843	442.449777	240.026938	-409.753968	329.454027	218.422207	-466.984046	-218.887737	911.064202	-275.674657	-53.307313	78.894005	-474.994320	-53.325263	79.156108	-77.404061	
502	2.5100	665.695312	1341.762703	-215.163232	654.140785	1348.534091	-511.044704	643.838863	1427.776552	-370.864726	616.663984	1266.147062	-361.175827	564.344608	1120.396138	-43.662499	692.152562	917.146057	-92.284715	478.040987	1096.976626	-565.307718	665.505167	934.946562	-483.676318	103.455406	1200.332593	-265.165222	233.994066	1196.559101	-425.015700	276.329091	1213.105664	-140.899421	286.846922	1142.453964	-395.033800	296.163362	1145.063735	-173.209730	147.018420	1242.464996	-224.572819	141.643799	1244.343305	-311.624710	207.033438	1079.473077	-107.287436	164.336659	1107.552875	-446.228246	284.788956	996.322809	-90.156104	359.941960	948.620044	-83.985587	398.942389	869.306310	-82.177156	385.813276	971.788870	-97.551751	474.969397	748.593939	-100.068082	466.177359	746.157391	-210.076107	373.025347	712.840113	-76.375801	307.699046	654.843764	-92.273756	224.474255	633.879164	-98.051414	324.204683	630.874368	-117.796556	107.534815	570.688267	-110.116415	142.140090	578.813678	-189.612973	44.079237	611.215818	-159.841366	167.419767	341.764891	-157.899087	99.268484	418.661641	-93.502561	231.334386	978.474471	-473.245781	291.535865	917.812981	-472.168182	324.170660	934.225743	-462.315781	312.467102	829.559614	-469.607197	371.205097	696.698129	-444.001610	362.736037	687.374958	-337.997234	309.602089	582.156669	-465.402323	301.084600	496.048116	-450.805941	249.191247	424.109207	-445.242681	331.230214	488.558179	-427.846038	210.287325	306.886123	-434.899533	248.720875	342.179319	-360.713595	147.378123	272.099598	-388.024100	438.942262	233.382980	-409.368475	325.932651	212.768453	-466.996873	-218.886990	911.077079	-275.699345	-53.294161	78.906745	-474.998137	-53.290865	79.144621	-77.416723	
503	2.5150	666.909597	1343.102889	-213.935919	656.986912	1350.078644	-510.002458	645.901004	1429.202932	-369.990452	618.732053	1267.605549	-360.429185	564.981977	1121.131710	-43.575904	692.435765	917.290935	-92.276474	481.758969	1098.650934	-567.550643	666.308772	934.449045	-483.564814	104.370374	1201.011191	-268.095104	236.551561	1195.806446	-426.950607	276.173787	1215.430792	-142.724232	289.118243	1141.913595	-396.171707	296.443511	1147.144969	-174.424550	148.012757	1243.391887	-228.063104	143.206883	1244.502715	-314.890741	207.409941	1081.557797	-108.329587	166.198687	1106.530055	-447.506115	285.709630	998.903790	-90.742232	361.497267	952.353083	-84.284975	401.540784	873.517953	-82.164543	387.052712	975.602375	-97.864144	478.890882	754.021492	-99.591001	470.572708	751.567318	-209.834025	376.620225	718.857579	-76.512648	311.231761	660.648205	-92.352606	228.258676	639.864732	-98.560108	327.969659	636.477558	-117.557251	111.713939	576.463907	-110.887931	146.182760	584.503531	-190.190513	47.918082	616.786804	-160.765649	171.774188	347.567957	-158.101020	103.651858	424.462414	-93.793367	231.334655	976.814280	-474.109067	290.293016	914.889300	-472.746451	323.178138	930.737751	-463.015278	309.358373	826.301067	-469.838508	365.797557	692.855944	-443.880377	358.040491	682.906470	-338.349776	304.537231	578.250507	-465.646032	296.516838	491.987564	-451.143222	245.041359	419.842764	-445.733874	326.686128	484.712247	-428.115252	207.104797	302.482032	-435.453306	245.885884	338.363878	-361.732365	143.918787	268.377752	-388.846349	435.175232	226.852369	-408.905207	322.237276	207.320231	-467.014929	-218.920236	911.053216	-275.709049	-53.284588	78.906635	-474.991617	-53.297886	79.144835	-77.435126	
504	2.5200	668.224387	1344.538713	-212.782636	659.799528	1351.777896	-508.849227	648.057667	1430.530115	-368.905861	620.832794	1269.059161	-359.681842	564.929338	1121.952107	-43.726501	692.711897	917.425482	-92.249850	485.235835	1100.269463	-568.927497	667.293918	934.059722	-483.499265	105.335411	1201.932656	-271.245526	239.078100	1195.384758	-428.912216	275.949134	1217.809505	-144.696763	291.392954	1141.728940	-397.309429	296.562016	1149.460397	-175.781876	148.580867	1244.747447	-231.330563	144.689975	1245.003078	-318.441238	207.611470	1083.944037	-109.420448	168.113376	1105.743683	-448.823534	286.635629	1002.135935	-91.875856	362.988070	956.492685	-84.854173	404.029253	878.170552	-82.340721	388.362485	980.092749	-98.280654	482.474729	759.764541	-99.147857	474.610618	757.059496	-209.584022	380.029677	724.984056	-76.669004	314.689824	666.657134	-92.439685	231.825377	645.929531	-99.058392	331.567500	642.431862	-117.300008	115.866044	582.038490	-111.669925	150.205734	590.078630	-190.783379	52.247615	622.097982	-161.147556	176.374211	353.246322	-158.308367	108.230974	430.173877	-94.073064	231.271269	975.411205	-474.885862	288.881955	912.247906	-473.147619	322.093923	927.446992	-463.545366	306.078828	823.325205	-469.904941	360.072613	689.286510	-443.504767	352.055758	679.375604	-338.250051	299.123341	574.591278	-465.763062	291.624526	488.318090	-451.348026	240.655912	415.842014	-446.229501	321.839951	481.135494	-428.329270	203.760577	298.498567	-436.284719	242.907494	334.741051	-362.754667	140.247399	264.902544	-389.964105	431.170325	220.540254	-408.313621	318.372358	202.043307	-467.043803	-218.954804	911.056494	-275.759663	-53.293481	78.911472	-475.000194	-53.287166	79.148120	-77.435395	
